<svg width="6" height="9" viewBox="0 0 6 9" fill="none" xmlns="http://www.w3.org/2000/svg">
    <path d="M0.0642166 4.50201C0.0649365 4.04159 0.104508 3.58213 0.182482 3.12901C0.253865 2.68615 0.395401 2.25892 0.601215 1.86501C0.799062 1.49001 1.08171 1.17168 1.42435 0.938004C1.83114 0.701879 2.28851 0.578003 2.75349 0.578003C3.21847 0.578003 3.67582 0.701879 4.08262 0.938004C4.42548 1.1714 4.7082 1.48979 4.90576 1.86501C5.11147 2.25906 5.25328 2.68622 5.32543 3.12901C5.48186 4.03633 5.48186 4.96569 5.32543 5.873C5.25343 6.31616 5.11162 6.74368 4.90576 7.13802C4.70795 7.51331 4.42529 7.83195 4.08262 8.06601C3.67562 8.3015 3.21835 8.42502 2.75349 8.42502C2.28863 8.42502 1.83134 8.3015 1.42435 8.06601C1.0819 7.83167 0.799316 7.51309 0.601215 7.13802C0.395252 6.74382 0.253709 6.31622 0.182482 5.873C0.104472 5.42057 0.0648991 4.96178 0.0642166 4.50201ZM1.59889 4.50201C1.59889 4.70201 1.60652 4.94101 1.62369 5.21901C1.64008 5.49039 1.6865 5.75886 1.762 6.01901C1.82914 6.26035 1.94603 6.48327 2.10441 6.67201C2.27947 6.84427 2.51054 6.94014 2.75062 6.94014C2.9907 6.94014 3.22178 6.84427 3.39683 6.67201C3.55899 6.48497 3.67838 6.26165 3.74593 6.01901C3.82066 5.75871 3.86674 5.49029 3.88327 5.21901C3.90044 4.94101 3.90998 4.70201 3.90998 4.50201C3.90998 4.30201 3.90044 4.06301 3.88327 3.78401C3.8669 3.51271 3.82081 3.24427 3.74593 2.98401C3.67839 2.74107 3.55901 2.51742 3.39683 2.33C3.22199 2.1573 2.99084 2.06113 2.75062 2.06113C2.51041 2.06113 2.27925 2.1573 2.10441 2.33C1.94603 2.51913 1.82915 2.74238 1.762 2.98401C1.68634 3.24412 1.63992 3.51261 1.62369 3.78401C1.60652 4.06301 1.59889 4.30201 1.59889 4.50201Z" fill="white"/>
</svg>
