<svg width="7" height="8" viewBox="0 0 7 8" fill="none" xmlns="http://www.w3.org/2000/svg">
    <path d="M3.41876 5.089C3.33673 5.11 3.25469 5.128 3.17267 5.142C3.08849 5.1566 3.00332 5.16396 2.918 5.164C2.59817 5.16823 2.28105 5.10214 1.98708 4.97C1.71663 4.84863 1.47307 4.66988 1.27173 4.445C1.07008 4.21695 0.913799 3.94907 0.811994 3.657C0.701222 3.34689 0.645621 3.01813 0.647941 2.687C0.641864 2.33225 0.708551 1.98026 0.843489 1.65488C0.978426 1.32949 1.17846 1.0383 1.43006 0.801003C1.68031 0.567064 1.97199 0.386984 2.2885 0.271004C2.97538 0.0203627 3.72289 0.0203627 4.40977 0.271004C4.72639 0.386722 5.01811 0.566831 5.26819 0.801003C5.51979 1.0383 5.71983 1.32949 5.85476 1.65488C5.9897 1.98026 6.05639 2.33225 6.05031 2.687C6.05242 2.93733 6.02844 3.18714 5.97878 3.432C5.93262 3.64997 5.8688 3.86341 5.78802 4.07C5.71043 4.2687 5.61795 4.46064 5.51142 4.64401C5.40555 4.82501 5.2949 5.013 5.17949 5.206L3.59425 7.806H1.72192L3.41876 5.089ZM2.1788 2.752C2.1743 2.90932 2.20049 3.06594 2.25576 3.21227C2.31104 3.35861 2.39422 3.49157 2.50023 3.603C2.73213 3.82121 3.03276 3.9419 3.34436 3.9419C3.65596 3.9419 3.95657 3.82121 4.18848 3.603C4.3942 3.37252 4.50867 3.06866 4.50867 2.753C4.50867 2.43734 4.3942 2.13348 4.18848 1.903C3.95657 1.6848 3.65596 1.5641 3.34436 1.5641C3.03276 1.5641 2.73213 1.6848 2.50023 1.903C2.39492 2.01442 2.31237 2.14716 2.2576 2.29313C2.20283 2.43909 2.17699 2.59522 2.18166 2.752H2.1788Z" fill="white"/>
</svg>
