<svg width="18" height="7" viewBox="0 0 18 7" fill="none" xmlns="http://www.w3.org/2000/svg">
    <path d="M0.378555 0.270004H2.20987L3.47463 4.029H3.48988L4.76322 0.270004H6.58595V6.03H5.38034V1.613H5.36411L3.92101 6.03H2.99581L1.60706 1.613H1.59084V6.03H0.380462L0.378555 0.270004Z" fill="white"/>
    <path d="M7.70286 0.270005H9.82986C10.0972 0.268896 10.3639 0.297725 10.6253 0.356003C10.8602 0.406011 11.0839 0.502386 11.2844 0.64C11.4756 0.775948 11.6305 0.960776 11.7346 1.177C11.8535 1.43967 11.9104 1.72845 11.9006 2.01901C11.9112 2.39043 11.805 2.7552 11.5982 3.057C11.3815 3.35061 11.0645 3.54457 10.714 3.598L12.1104 6.03H10.6606L9.51128 3.73H8.90943V6.03H7.69809L7.70286 0.270005ZM8.91419 2.654H9.62764C9.73638 2.654 9.85179 2.654 9.97292 2.641C10.0858 2.635 10.1971 2.61072 10.3029 2.569C10.3994 2.52936 10.4838 2.46299 10.5471 2.377C10.617 2.26959 10.6506 2.14075 10.6425 2.011C10.6507 1.89822 10.6262 1.78549 10.5722 1.68754C10.5183 1.58959 10.4374 1.51098 10.3401 1.462C10.2446 1.41386 10.1421 1.38245 10.0368 1.369C9.92657 1.35243 9.81533 1.34408 9.70395 1.344H8.91229L8.91419 2.654Z" fill="white"/>
    <path d="M16.1145 1.827C16.0022 1.68279 15.8591 1.56836 15.6967 1.493C15.516 1.41209 15.3209 1.37254 15.1245 1.377C14.9204 1.37459 14.7183 1.41797 14.5316 1.5042C14.3449 1.59044 14.1779 1.71755 14.0419 1.877C13.9026 2.04124 13.7948 2.23204 13.7243 2.439C13.5691 2.89698 13.5691 3.39702 13.7243 3.855C13.7948 4.05987 13.9012 4.24911 14.0381 4.413C14.1679 4.56904 14.3279 4.69446 14.5074 4.781C14.6892 4.86961 14.8877 4.9147 15.0882 4.913C15.3066 4.91784 15.5225 4.86451 15.7158 4.758C15.8987 4.65511 16.0541 4.50592 16.1679 4.324L17.1294 5.076C16.9172 5.3933 16.6253 5.64284 16.2862 5.79701C15.9556 5.95002 15.5984 6.02936 15.237 6.03C14.8513 6.03446 14.4679 5.96674 14.1048 5.83C13.7725 5.70362 13.4683 5.50725 13.2111 5.253C12.9554 4.99604 12.7545 4.68522 12.6217 4.341C12.3419 3.57203 12.3419 2.72198 12.6217 1.953C12.7545 1.60908 12.9554 1.29859 13.2111 1.042C13.468 0.787026 13.7722 0.590274 14.1048 0.464005C14.4679 0.327271 14.8513 0.259539 15.237 0.264001C15.3917 0.264592 15.5461 0.27864 15.6987 0.306001C15.8615 0.334096 16.0213 0.379327 16.1756 0.441003C16.3337 0.504825 16.4839 0.588431 16.6229 0.690003C16.7674 0.796011 16.896 0.924093 17.0044 1.07L16.1145 1.827Z" fill="white"/>
</svg>
