<svg width="7" height="8" viewBox="0 0 7 8" fill="none" xmlns="http://www.w3.org/2000/svg">
    <path d="M5.3345 0.490997L0.94696 7.327H2.06768L6.4142 0.490997H5.3345Z" fill="white"/>
    <path d="M1.92649 0.721001C1.72139 0.721001 1.5209 0.784781 1.35038 0.904267C1.17986 1.02375 1.04699 1.19358 0.968546 1.39226C0.890101 1.59094 0.869607 1.80955 0.909689 2.02043C0.949771 2.23132 1.04863 2.425 1.19372 2.57698C1.33882 2.72896 1.52365 2.83241 1.72483 2.87424C1.92601 2.91607 2.1345 2.8944 2.32393 2.81197C2.51336 2.72955 2.67521 2.59007 2.78902 2.41118C2.90283 2.23229 2.96348 2.02203 2.96329 1.807C2.96329 1.6643 2.93646 1.523 2.88435 1.39117C2.83223 1.25935 2.75586 1.13958 2.65957 1.03873C2.56329 0.93787 2.44899 0.857901 2.3232 0.803383C2.19742 0.748866 2.0626 0.72087 1.92649 0.721001ZM1.92649 2.383C1.81779 2.3832 1.7115 2.34959 1.62103 2.28642C1.53056 2.22324 1.45996 2.13336 1.41823 2.02812C1.37651 1.92289 1.3655 1.80704 1.38659 1.69524C1.40769 1.58345 1.45994 1.48072 1.53673 1.40006C1.61353 1.31941 1.71141 1.26445 1.818 1.24214C1.9246 1.21984 2.03513 1.23118 2.13557 1.27475C2.23602 1.31832 2.32188 1.39215 2.38229 1.48689C2.4427 1.58164 2.47494 1.69304 2.47494 1.807C2.47469 1.95951 2.41686 2.10572 2.31409 2.21365C2.21132 2.32159 2.07196 2.38248 1.92649 2.383Z" fill="white"/>
    <path d="M5.427 4.926C5.22217 4.9262 5.02198 4.99006 4.85176 5.10951C4.68155 5.22896 4.54894 5.39864 4.47068 5.5971C4.39243 5.79556 4.37207 6.01388 4.41215 6.22448C4.45222 6.43508 4.55093 6.62849 4.69583 6.78027C4.84073 6.93205 5.0253 7.03539 5.22621 7.07721C5.42712 7.11903 5.63536 7.09746 5.82458 7.01524C6.0138 6.93301 6.17551 6.79382 6.28929 6.61525C6.40307 6.43668 6.46379 6.22675 6.46379 6.012C6.46379 5.8693 6.43697 5.728 6.38485 5.59618C6.33274 5.46435 6.25634 5.34459 6.16005 5.24373C6.06376 5.14287 5.94946 5.0629 5.82368 5.00838C5.6979 4.95386 5.5631 4.92587 5.427 4.926ZM5.427 6.587C5.31856 6.5868 5.21262 6.55291 5.12256 6.48961C5.03249 6.42631 4.96235 6.33644 4.92098 6.23135C4.87962 6.12627 4.86889 6.01069 4.89016 5.89922C4.91143 5.78774 4.96373 5.68538 5.04047 5.60506C5.11721 5.52475 5.21494 5.47008 5.3213 5.44798C5.42767 5.42587 5.5379 5.43732 5.63806 5.48087C5.73822 5.52442 5.8238 5.59811 5.88402 5.69265C5.94424 5.78719 5.97638 5.89832 5.97638 6.012C5.97613 6.16459 5.91815 6.31084 5.81515 6.41865C5.71215 6.52645 5.57254 6.587 5.427 6.587Z" fill="white"/>
</svg>
