<svg width="13" height="8" viewBox="0 0 13 8" fill="none" xmlns="http://www.w3.org/2000/svg">
    <path d="M1.48852 7.305C1.42827 7.30508 1.36917 7.28777 1.31768 7.25496C1.2662 7.22215 1.22432 7.17511 1.19665 7.119L0.110269 4.952C0.088201 4.91167 0.0741127 4.86708 0.0688481 4.82091C0.0635836 4.77474 0.0672409 4.72793 0.0796181 4.68328C0.0919953 4.63863 0.112828 4.59705 0.140876 4.56103C0.168923 4.52501 0.203606 4.49529 0.242856 4.47364C0.282106 4.45199 0.325115 4.43885 0.369315 4.43502C0.413515 4.43118 0.458002 4.43673 0.500112 4.45132C0.542222 4.46592 0.581093 4.48926 0.614405 4.51996C0.647716 4.55066 0.674793 4.58808 0.694 4.62999L1.41317 6.063L3.02225 0.756001C3.04334 0.685812 3.08523 0.624502 3.14184 0.580982C3.19844 0.537463 3.26681 0.513996 3.33701 0.513996H12.2914C12.3363 0.511467 12.3812 0.518554 12.4234 0.534825C12.4656 0.551095 12.5042 0.576207 12.5368 0.608631C12.5694 0.641056 12.5954 0.680113 12.6132 0.723416C12.6309 0.766718 12.6401 0.813364 12.6401 0.860501C12.6401 0.907637 12.6309 0.954275 12.6132 0.997578C12.5954 1.04088 12.5694 1.07994 12.5368 1.11236C12.5042 1.14479 12.4656 1.1699 12.4234 1.18617C12.3812 1.20244 12.3363 1.20953 12.2914 1.207H3.57831L1.80328 7.063C1.78336 7.12815 1.74562 7.18573 1.69475 7.22858C1.64387 7.27143 1.58211 7.29765 1.51713 7.304L1.48852 7.305Z" fill="white"/>
</svg>
