<svg width="4" height="4" viewBox="0 0 4 4" fill="none" xmlns="http://www.w3.org/2000/svg">
    <path d="M3.12505 2.17499C3.12487 2.43977 3.0498 2.69856 2.90935 2.91862C2.7689 3.13869 2.56937 3.31017 2.33598 3.41136C2.1026 3.51255 1.84583 3.53892 1.59815 3.48714C1.35047 3.43536 1.12299 3.30776 0.944473 3.12045C0.765956 2.93315 0.644423 2.69456 0.595221 2.43484C0.546019 2.17513 0.571357 1.90596 0.668049 1.66135C0.764742 1.41673 0.928443 1.20768 1.13845 1.06059C1.34845 0.913506 1.59534 0.834992 1.8479 0.834991C2.0157 0.834991 2.18186 0.869658 2.33687 0.937012C2.49188 1.00437 2.63272 1.10308 2.75132 1.22752C2.86993 1.35197 2.96398 1.49971 3.02811 1.66228C3.09224 1.82485 3.12518 1.99906 3.12505 2.17499Z" fill="white"/>
</svg>
