<svg width="16" height="7" viewBox="0 0 16 7" fill="none" xmlns="http://www.w3.org/2000/svg">
<path d="M0.211232 3.909C0.205832 3.48048 0.281021 3.05504 0.432511 2.65699C0.571515 2.29621 0.78184 1.9704 1.04963 1.701C1.32005 1.43387 1.63979 1.22764 1.98913 1.095C2.75752 0.812349 3.59478 0.812349 4.36317 1.095C4.71234 1.2274 5.0318 1.43367 5.30171 1.701C5.56981 1.97013 5.78018 2.29601 5.91883 2.65699C6.2136 3.4634 6.2136 4.35559 5.91883 5.162C5.77993 5.52284 5.56959 5.84868 5.30171 6.118C5.0318 6.38533 4.71234 6.5916 4.36317 6.724C3.59456 7.0053 2.75774 7.0053 1.98913 6.724C1.63979 6.59136 1.32005 6.38513 1.04963 6.118C0.782061 5.8484 0.571771 5.52264 0.432511 5.162C0.280946 4.76363 0.205757 4.33785 0.211232 3.909ZM1.46931 3.909C1.46637 4.16289 1.50707 4.41524 1.58948 4.654C1.66503 4.87179 1.78256 5.07093 1.93476 5.239C2.08595 5.40619 2.26933 5.53777 2.47272 5.625C2.92436 5.8103 3.42603 5.8103 3.87767 5.625C4.08163 5.5378 4.26565 5.40624 4.41754 5.239C4.56946 5.0707 4.68696 4.87163 4.76282 4.654C4.92304 4.17325 4.92304 3.64974 4.76282 3.169C4.68754 2.94958 4.57001 2.74876 4.41754 2.579C4.26515 2.41238 4.08127 2.28091 3.87767 2.193C3.4258 2.00897 2.92459 2.00897 2.47272 2.193C2.2697 2.28094 2.08645 2.41243 1.93476 2.579C1.78187 2.74842 1.66429 2.94935 1.58948 3.169C1.50779 3.40621 1.46711 3.65681 1.46931 3.909Z" fill="white"/>
<path d="M7.00808 1.03H10.6946V2.201H8.21465V3.372H10.5038V4.544H8.21465V6.789H7.00332L7.00808 1.03Z" fill="white"/>
<path d="M11.6102 1.03H15.2957V2.201H12.8158V3.372H15.105V4.544H12.8158V6.789H11.6102V1.03Z" fill="white"/>
</svg>
