<svg width="6" height="9" viewBox="0 0 6 9" fill="none" xmlns="http://www.w3.org/2000/svg">
    <path d="M0.326981 6.945L3.13883 4.297C3.29037 4.15226 3.43368 3.99833 3.56804 3.83601C3.70863 3.67118 3.78519 3.4571 3.78264 3.236C3.78744 3.12033 3.7659 3.00512 3.71979 2.89991C3.67368 2.7947 3.60433 2.70252 3.51748 2.631C3.3399 2.48459 3.11958 2.40688 2.89369 2.411C2.76978 2.40415 2.64592 2.42555 2.53066 2.47372C2.4154 2.52188 2.31147 2.59566 2.22603 2.68999C2.06397 2.87972 1.96841 3.12169 1.95514 3.376L0.421407 3.259C0.433284 2.90429 0.513081 2.55572 0.656046 2.234C0.785456 1.95502 0.970541 1.70844 1.19876 1.51099C1.43311 1.31275 1.70247 1.16493 1.99139 1.076C2.31158 0.97736 2.64391 0.928839 2.97763 0.931999C3.2897 0.929654 3.60022 0.978232 3.89805 1.076C4.17092 1.16679 4.42427 1.31251 4.64393 1.505C4.85875 1.70027 5.02809 1.94451 5.13897 2.219C5.26434 2.53566 5.3254 2.87623 5.31827 3.219C5.32045 3.44086 5.29676 3.66217 5.2477 3.878C5.20308 4.06476 5.1361 4.24485 5.04835 4.41399C4.96355 4.57358 4.86214 4.72283 4.746 4.859C4.62569 4.99935 4.49833 5.13287 4.36446 5.259L2.1707 7.242H5.38027V8.656H0.326981V6.945Z" fill="white"/>
</svg>
