<svg width="6" height="9" viewBox="0 0 6 9" fill="none" xmlns="http://www.w3.org/2000/svg">
    <path d="M2.62614 3.986H3.12784C3.26798 3.98604 3.40792 3.97535 3.54656 3.954C3.67687 3.93458 3.80322 3.89268 3.92047 3.82999C4.03095 3.77109 4.12445 3.68239 4.19135 3.573C4.26418 3.44155 4.29928 3.29085 4.29245 3.139C4.29428 3.02974 4.27167 2.92155 4.22645 2.82309C4.18124 2.72463 4.11466 2.63864 4.03205 2.57199C3.85176 2.41879 3.62497 2.33859 3.393 2.346C3.18813 2.33735 2.98669 2.40307 2.82266 2.53205C2.65863 2.66103 2.54205 2.84538 2.49261 3.054L0.806278 2.689C0.87715 2.38646 1.00207 2.10076 1.17444 1.847C1.33168 1.62143 1.5297 1.43046 1.75722 1.28499C1.99033 1.13884 2.24398 1.0322 2.50882 0.968998C2.79539 0.900428 3.08857 0.866865 3.38251 0.868992C3.69499 0.867963 4.0063 0.909307 4.30867 0.991993C4.59012 1.06735 4.85526 1.19836 5.08984 1.37799C5.3145 1.55205 5.49845 1.7774 5.62778 2.03699C5.76636 2.33002 5.83478 2.65402 5.82713 2.98099C5.83674 3.36834 5.7252 3.74834 5.50952 4.06299C5.2847 4.3719 4.95576 4.57904 4.59004 4.642V4.674C4.79228 4.69684 4.98745 4.76505 5.16232 4.874C5.32604 4.97847 5.46968 5.11413 5.58581 5.27399C5.70451 5.43407 5.79467 5.61532 5.85193 5.80899C5.91535 6.0134 5.94755 6.22704 5.94732 6.44199C5.95516 6.78806 5.88351 7.13103 5.73842 7.44199C5.6043 7.72094 5.41236 7.96491 5.17664 8.15599C4.92921 8.35131 4.64806 8.49461 4.34872 8.57799C4.02078 8.67345 3.68183 8.7209 3.3415 8.719C2.75206 8.73586 2.17082 8.57143 1.66948 8.24599C1.42837 8.07499 1.22231 7.85519 1.06342 7.59948C0.904531 7.34376 0.796029 7.05731 0.744278 6.75699L2.36003 6.357C2.40075 6.60358 2.51732 6.82941 2.69195 7C2.90235 7.17266 3.16662 7.25681 3.43307 7.236C3.56797 7.24769 3.7037 7.22942 3.8314 7.18238C3.9591 7.13533 4.0759 7.06059 4.17417 6.963C4.33718 6.77076 4.42326 6.52006 4.41453 6.263C4.42912 6.10069 4.39189 5.93788 4.30868 5.80014C4.22547 5.66241 4.101 5.55755 3.9548 5.502C3.80726 5.4433 3.65176 5.40954 3.49411 5.402C3.32433 5.393 3.1536 5.387 2.98287 5.387H2.62519L2.62614 3.986Z" fill="white"/>
</svg>
