<svg width="6" height="9" viewBox="0 0 6 9" fill="none" xmlns="http://www.w3.org/2000/svg">
    <path d="M5.20478 1.708H2.32998L2.29946 2.876C2.50812 2.81223 2.7251 2.78355 2.94233 2.79101C3.28678 2.78737 3.62932 2.84518 3.95527 2.962C4.24947 3.06909 4.51911 3.23939 4.74694 3.462C4.97122 3.68466 5.14749 3.95504 5.26391 4.255C5.38993 4.58766 5.45216 4.94311 5.44704 5.301C5.45329 5.69422 5.38252 6.08461 5.23911 6.44801C5.10634 6.77179 4.90891 7.06197 4.66014 7.299C4.40635 7.53641 4.10906 7.71707 3.78645 7.82999C3.43232 7.95401 3.06101 8.01552 2.68766 8.012C2.12658 8.03262 1.57409 7.86326 1.11197 7.529C0.66557 7.16798 0.357574 6.65097 0.244003 6.072L1.84927 5.686C1.88064 5.93929 1.99654 6.17275 2.17642 6.34499C2.35978 6.5159 2.5989 6.60616 2.84409 6.59701C2.98853 6.60428 3.13279 6.57942 3.26742 6.5241C3.40205 6.46878 3.524 6.38424 3.62526 6.27601C3.72263 6.16695 3.79852 6.03883 3.84861 5.89898C3.89869 5.75913 3.92198 5.6103 3.91713 5.46101C3.92553 5.24502 3.87418 5.03109 3.76929 4.84499C3.67139 4.68511 3.53782 4.55264 3.38013 4.45901C3.21404 4.35985 3.03259 4.29214 2.84409 4.259C2.64817 4.22321 2.44969 4.20514 2.25082 4.20499C1.99481 4.20528 1.73937 4.2304 1.48777 4.28001C1.23645 4.3278 0.988754 4.39464 0.746655 4.48L0.828681 0.288002H5.20478V1.708Z" fill="white"/>
</svg>
