<svg width="7" height="9" viewBox="0 0 7 9" fill="none" xmlns="http://www.w3.org/2000/svg">
    <path d="M3.27665 3.006C3.35868 2.984 3.4407 2.966 3.52273 2.951C3.60699 2.93723 3.69212 2.93021 3.77739 2.93C4.09715 2.92546 4.41427 2.99119 4.70831 3.12299C4.97837 3.24509 5.2218 3.42375 5.42367 3.648C5.62532 3.87643 5.78161 4.14463 5.88341 4.437C5.99366 4.74691 6.04924 5.07524 6.04747 5.406C6.05312 5.76083 5.98624 6.11283 5.85134 6.43832C5.71643 6.7638 5.51662 7.05523 5.26534 7.29301C5.01525 7.52718 4.72353 7.70729 4.40691 7.82301C3.72035 8.07365 2.97314 8.07365 2.28658 7.82301C1.97003 7.70714 1.67834 7.52705 1.42816 7.29301C1.17644 7.0556 0.976329 6.76424 0.841387 6.43867C0.706445 6.1131 0.639829 5.76092 0.646043 5.406C0.644031 5.15568 0.668014 4.90588 0.717576 4.661C0.763872 4.4434 0.827685 4.23029 0.908335 4.02399C0.985982 3.8255 1.07814 3.63361 1.18399 3.45C1.29081 3.268 1.40146 3.081 1.51687 2.887L3.1021 0.293007H4.97252L3.27665 3.006ZM4.51661 5.34299C4.5212 5.18537 4.49506 5.02842 4.43979 4.88175C4.38452 4.73508 4.30128 4.60177 4.19517 4.49C3.96269 4.27302 3.66229 4.15314 3.35105 4.15314C3.0398 4.15314 2.73939 4.27302 2.50692 4.49C2.30161 4.7207 2.18744 5.02448 2.18744 5.34C2.18744 5.65553 2.30161 5.95929 2.50692 6.18999C2.73939 6.40697 3.0398 6.52685 3.35105 6.52685C3.66229 6.52685 3.96269 6.40697 4.19517 6.18999C4.30061 6.07896 4.38348 5.94665 4.43873 5.80106C4.49398 5.65547 4.52047 5.49963 4.51661 5.34299Z" fill="white"/>
</svg>
