<svg width="6" height="8" viewBox="0 0 6 8" fill="none" xmlns="http://www.w3.org/2000/svg">
    <path d="M0.422373 2.109C0.415683 1.7918 0.481068 1.47748 0.613132 1.192C0.736417 0.934893 0.91464 0.711086 1.13392 0.538001C1.36564 0.357788 1.62777 0.225126 1.9065 0.147003C2.52274 -0.0249835 3.17118 -0.0249835 3.78742 0.147003C4.06318 0.225254 4.32216 0.35796 4.55047 0.538001C4.78108 0.720577 4.96643 0.9586 5.09093 1.23201C5.21543 1.50542 5.27542 1.8062 5.26583 2.109C5.27615 2.49075 5.16248 2.86485 4.94344 3.17C4.71367 3.47367 4.39655 3.69147 4.03923 3.791V3.813C4.43791 3.89922 4.79366 4.13299 5.04148 4.47157C5.28929 4.81016 5.41261 5.23094 5.38887 5.657C5.39562 5.99153 5.32354 6.32266 5.17903 6.621C5.04441 6.89377 4.85189 7.13052 4.61628 7.313C4.37156 7.50041 4.09659 7.63997 3.80459 7.725C3.17599 7.9116 2.51031 7.9116 1.8817 7.725C1.58948 7.63978 1.31422 7.50023 1.06905 7.313C0.833622 7.13059 0.641406 6.89381 0.507267 6.621C0.362754 6.32266 0.290677 5.99153 0.297427 5.657C0.273686 5.23094 0.396987 4.81016 0.644802 4.47157C0.892617 4.13299 1.24838 3.89922 1.64706 3.813V3.791C1.2894 3.69167 0.971921 3.47385 0.741906 3.17C0.524292 2.86424 0.411678 2.49033 0.422373 2.109ZM1.8321 5.431C1.8302 5.55775 1.85386 5.68348 1.90153 5.79998C1.94919 5.91647 2.0198 6.0211 2.10872 6.107C2.31568 6.28659 2.57592 6.38486 2.84458 6.38486C3.11324 6.38486 3.37348 6.28659 3.58044 6.107C3.66936 6.0211 3.73995 5.91647 3.78762 5.79998C3.83529 5.68348 3.85895 5.55775 3.85704 5.431C3.8595 5.30284 3.83613 5.17559 3.78847 5.05756C3.7408 4.93952 3.66992 4.83335 3.58044 4.746C3.3738 4.56568 3.11344 4.46694 2.84458 4.46694C2.57572 4.46694 2.31536 4.56568 2.10872 4.746C2.0199 4.83373 1.94964 4.94004 1.90249 5.05804C1.85533 5.17603 1.83233 5.30309 1.83497 5.431H1.8321ZM1.95514 2.331C1.95348 2.44346 1.97445 2.55502 2.01669 2.6584C2.05893 2.76179 2.12148 2.85467 2.20027 2.931C2.38072 3.08998 2.60888 3.17714 2.84458 3.17714C3.08028 3.17714 3.30842 3.08998 3.48887 2.931C3.56766 2.85467 3.63022 2.76179 3.67246 2.6584C3.71469 2.55502 3.73567 2.44346 3.734 2.331C3.73497 2.22027 3.71363 2.11057 3.67139 2.00907C3.62915 1.90758 3.56695 1.81657 3.48887 1.742C3.30867 1.58247 3.08044 1.49494 2.84458 1.49494C2.60873 1.49494 2.38048 1.58247 2.20027 1.742C2.12218 1.81768 2.06022 1.9098 2.01847 2.01234C1.97671 2.11489 1.95611 2.22552 1.95801 2.337L1.95514 2.331Z" fill="white"/>
</svg>
